# xmcd
#
# Track frame offsets:
#	183
#	16025
#	31248
#	45295
#	58228
#	72523
#	89865
#	106908
#	122125
#	134963
#	151220
#	166008
#	182568
#	192033
#	204370
#	215925
#
# Disc length: 3155 seconds
#
# Revision: 0
# Processed by: cddbd v1.4PL0 Copyright (c) Steve Scherf et al.
# Submitted via: dBpowerAMP V4.0
#
DISCID=e30c5110
DTITLE=Ray Lynham - Very Best Of
DYEAR=1900
DGENRE=Country
TTITLE0=If We're Not Back In Love By Monday
TTITLE1=What A Lie
TTITLE2=He Stopped Loving Her Today
TTITLE3=You Put The Blue In Me
TTITLE4=You Win Again
TTITLE5=The Gambler
TTITLE6=The Moon Is Still Over Her Shoulder
TTITLE7=Beautiful Woman
TTITLE8=To Be Lovers
TTITLE9=Mona Lisa Lost Her Smile
TTITLE10=Girls, Woman And Ladies
TTITLE11=Hold Her In Your Hand
TTITLE12=Speak Softly ( You're Talking To My Heart )
TTITLE13=I'll Never Get Over You
TTITLE14=Rainy Days,Stormy Nights
TTITLE15=I Don't Want To See Another Town
EXTD=
EXTT0=
EXTT1=
EXTT2=
EXTT3=
EXTT4=
EXTT5=
EXTT6=
EXTT7=
EXTT8=
EXTT9=
EXTT10=
EXTT11=
EXTT12=
EXTT13=
EXTT14=
EXTT15=
PLAYORDER=
